<?xml version="1.0" standalone="no"?>
<!DOCTYPE svg PUBLIC "-//W3C//DTD SVG 20010904//EN"
 "http://www.w3.org/TR/2001/REC-SVG-20010904/DTD/svg10.dtd">
<svg version="1.0" xmlns="http://www.w3.org/2000/svg"
 width="274.000000pt" height="274.000000pt" viewBox="0 0 274.000000 274.000000"
 preserveAspectRatio="xMidYMid meet">
<metadata>
Created by potrace 1.11, written by Peter Selinger 2001-2013
</metadata>
<g transform="translate(0.000000,274.000000) scale(0.100000,-0.100000)"
fill="#000000" stroke="none">
<path d="M193 1872 c-18 -2 -33 -9 -34 -15 -1 -15 -1 -589 0 -600 1 -4 35 -7
76 -6 l75 2 0 181 0 181 58 -105 58 -105 44 0 43 0 59 105 58 105 0 -182 0
-182 75 0 75 0 0 309 c0 241 -3 310 -12 311 -34 2 -140 0 -143 -3 -1 -2 -35
-61 -75 -133 -40 -71 -74 -131 -75 -133 -3 -4 -125 207 -125 216 0 4 -8 17
-18 29 -17 22 -71 31 -139 25z"/>
<path d="M1140 1860 c-14 -27 -230 -591 -230 -601 0 -6 32 -9 77 -7 l78 3 18
50 18 50 112 -1 c62 -1 119 -2 127 -3 9 -1 23 -22 33 -51 l18 -50 79 1 c44 0
80 3 80 5 0 4 -231 607 -234 611 -1 1 -39 3 -85 5 -66 2 -85 0 -91 -12z m125
-259 c19 -51 35 -97 35 -101 0 -5 -34 -9 -75 -8 -42 0 -74 4 -73 7 2 4 18 51
37 104 19 53 36 96 37 94 2 -1 19 -45 39 -96z"/>
<path d="M1674 1868 c-2 -3 40 -66 94 -140 54 -73 102 -139 106 -146 4 -7 -36
-72 -103 -166 -61 -85 -111 -156 -111 -159 0 -3 40 -6 88 -6 l88 0 64 94 c35
52 66 95 69 95 3 0 34 -43 69 -95 l62 -95 96 0 95 0 -61 88 c-33 48 -83 120
-111 159 l-51 73 83 117 c45 65 93 133 107 151 l24 32 -38 1 c-91 2 -149 -3
-155 -14 -28 -49 -105 -167 -110 -167 -3 0 -34 41 -68 90 -35 51 -70 90 -79
91 -90 4 -155 3 -158 -3z"/>
<path d="M2475 1382 c-33 -7 -55 -33 -55 -67 0 -41 30 -68 75 -68 45 0 75 27
75 68 0 49 -42 79 -95 67z"/>
<path d="M9 1038 c-1 -23 -1 -143 0 -163 1 -13 12 -16 54 -14 89 3 127 34 127
102 0 34 -37 85 -64 88 -6 1 -35 2 -63 3 -45 2 -53 0 -54 -16z m115 -44 c19
-19 21 -58 4 -72 -12 -10 -41 -16 -64 -13 -8 1 -12 55 -5 94 2 13 49 7 65 -9z"/>
<path d="M247 1046 c-2 -6 -3 -49 -3 -96 l1 -85 69 -3 c46 -2 72 1 77 9 15 25
-2 37 -52 35 -41 -2 -49 0 -49 16 0 14 8 18 40 18 33 0 40 3 40 20 0 12 -7 20
-17 21 -50 3 -57 5 -60 17 -3 8 11 12 51 12 49 0 55 2 53 20 -1 11 -6 20 -12
21 -63 6 -135 4 -138 -5z"/>
<path d="M472 1044 c-24 -17 -30 -65 -9 -81 6 -5 31 -15 55 -22 45 -13 53 -25
24 -40 -14 -7 -25 -6 -41 5 -12 9 -30 13 -41 9 -16 -5 -18 -9 -7 -25 35 -56
164 -32 154 29 -6 33 -24 51 -61 58 -22 5 -41 14 -44 21 -6 19 27 26 54 12 20
-11 27 -11 37 -1 9 10 7 16 -12 32 -28 23 -78 25 -109 3z"/>
<path d="M665 1047 c-2 -7 -3 -50 -2 -97 2 -80 3 -85 25 -88 22 -3 22 -1 22
95 0 92 -1 99 -21 100 -11 1 -22 -4 -24 -10z"/>
<path d="M813 1044 c-32 -16 -52 -54 -47 -88 8 -56 16 -68 56 -86 37 -16 46
-17 75 -5 18 8 33 10 33 4 0 -5 9 -9 20 -9 18 0 20 7 20 54 0 59 -8 66 -72 57
-38 -5 -40 -41 -3 -41 29 0 33 -16 6 -25 -29 -9 -70 5 -82 27 -12 22 5 77 25
79 27 3 62 -4 67 -13 7 -11 49 -1 49 11 0 4 -9 16 -19 25 -28 25 -89 30 -128
10z"/>
<path d="M1030 958 c0 -96 1 -98 23 -98 21 0 23 5 24 51 1 28 4 53 6 55 2 3
19 -18 36 -45 31 -48 48 -61 77 -61 11 0 14 20 14 99 0 89 -2 99 -17 96 -10
-2 -21 -4 -25 -4 -4 -1 -8 -24 -10 -52 l-3 -52 -37 55 c-29 41 -44 54 -63 54
l-25 0 0 -98z"/>
<path d="M1440 1040 c-16 -30 -60 -152 -60 -166 0 -22 41 -17 47 6 4 16 14 20
44 20 28 0 41 -5 49 -20 10 -19 50 -29 50 -12 0 4 -15 47 -33 97 -31 81 -36
89 -61 91 -16 0 -31 -6 -36 -16z m49 -80 c1 -9 -8 -16 -19 -17 -24 -2 -23 -5
-8 37 10 30 12 32 19 14 4 -10 8 -26 8 -34z"/>
<path d="M1665 1051 c-55 -24 -75 -101 -40 -154 21 -33 85 -50 120 -31 14 7
25 9 25 3 0 -5 9 -9 20 -9 18 0 20 7 20 58 0 57 0 58 -27 56 -16 -1 -38 -3
-50 -3 -33 -1 -22 -35 13 -41 28 -6 28 -6 8 -17 -11 -7 -27 -11 -35 -9 -33 6
-59 18 -60 29 0 7 -2 20 -4 29 -2 9 5 24 16 34 21 19 71 22 77 5 5 -14 39 -14
48 0 19 32 -83 71 -131 50z"/>
<path d="M1880 1050 c-6 -3 -9 -43 -7 -96 l2 -89 73 -2 c69 -3 72 -2 72 20 0
20 -5 22 -47 22 -38 0 -48 4 -51 18 -3 14 4 17 32 17 29 0 36 4 36 20 0 20 -8
24 -47 20 -15 -1 -23 4 -23 14 0 13 11 16 51 16 46 0 50 2 47 22 -3 20 -9 23
-65 23 -35 1 -67 -1 -73 -5z"/>
<path d="M2080 958 c0 -97 0 -99 23 -96 19 3 22 9 23 51 1 26 3 50 6 52 3 3
22 -20 43 -50 28 -41 44 -55 61 -55 18 0 24 6 25 23 5 164 4 174 -31 173 -11
-1 -15 -14 -16 -51 -1 -27 -2 -52 -3 -55 0 -3 -18 20 -40 50 -29 40 -45 54
-65 56 l-26 1 0 -99z"/>
<path d="M2375 1050 c-95 -38 -64 -184 40 -192 33 -2 95 29 95 48 0 19 -29 25
-53 11 -12 -8 -29 -13 -37 -12 -8 1 -20 3 -26 3 -18 3 -32 45 -23 69 12 34 41
44 73 28 17 -9 39 -12 54 -8 l25 6 -31 29 c-33 29 -75 36 -117 18z"/>
<path d="M2561 1037 c6 -12 23 -42 37 -66 14 -24 26 -58 26 -75 1 -24 6 -32
24 -34 19 -3 22 1 22 32 0 22 14 60 36 101 l36 65 -26 -2 c-17 -2 -31 -13 -43
-35 -22 -41 -28 -41 -48 -3 -9 17 -19 30 -23 31 -4 0 -17 2 -30 5 -21 4 -22 2
-11 -19z"/>
</g>
</svg>
